<svg width="36" height="36" viewBox="0 0 36 36" fill="none" xmlns="http://www.w3.org/2000/svg">
<path d="M33 8.6938C31.8766 9.19176 30.6848 9.5184 29.4645 9.6628C30.7503 8.89398 31.7126 7.68376 32.172 6.2578C30.9639 6.97551 29.6418 7.48082 28.263 7.7518C27.4182 6.85243 26.3227 6.22763 25.1185 5.95841C23.9143 5.68919 22.657 5.78797 21.5096 6.24194C20.3622 6.69591 19.3777 7.48413 18.6837 8.50439C17.9897 9.52465 17.6183 10.7299 17.6175 11.9638C17.6167 12.4358 17.6695 12.9063 17.775 13.3663C15.3281 13.2435 12.9345 12.6075 10.7493 11.4997C8.56413 10.3918 6.63632 8.8369 5.091 6.9358C4.30389 8.29083 4.06275 9.89489 4.41666 11.4215C4.77058 12.948 5.69294 14.2823 6.996 15.1528C6.01789 15.1228 5.06119 14.859 4.206 14.3833V14.4613C4.20624 15.8825 4.69809 17.2599 5.59812 18.3598C6.49815 19.4596 7.75095 20.2143 9.144 20.4958C8.61553 20.6395 8.07016 20.7116 7.5225 20.7103C7.13348 20.7105 6.74529 20.6743 6.363 20.6023C6.75608 21.825 7.52139 22.8944 8.55197 23.6609C9.58255 24.4273 10.8269 24.8526 12.111 24.8773C9.53013 26.8973 6.25412 27.8126 3 27.4228C5.81408 29.2318 9.08962 30.1921 12.435 30.1888C14.7387 30.2043 17.0224 29.7621 19.1537 28.8876C21.285 28.0132 23.2213 26.724 24.8502 25.095C26.4791 23.4659 27.7681 21.5295 28.6424 19.3981C29.5167 17.2668 29.9587 14.9829 29.943 12.6793C29.943 12.4123 29.9365 12.1473 29.9235 11.8843C31.1303 11.0119 32.1721 9.93153 33 8.6938Z" fill="#2D76F9"/>
</svg>
