<svg width="135" height="36" viewBox="0 0 135 36" fill="none" xmlns="http://www.w3.org/2000/svg">
<path d="M14.4645 3.53553C16.4171 1.58291 19.5829 1.58291 21.5355 3.53553L32.4645 14.4645C34.4171 16.4171 34.4171 19.5829 32.4645 21.5355L21.5355 32.4645C19.5829 34.4171 16.4171 34.4171 14.4645 32.4645L3.53553 21.5355C1.58291 19.5829 1.58291 16.4171 3.53553 14.4645L14.4645 3.53553Z" fill="#D6E5FD"/>
<path d="M18 13.5C18.1989 13.5 18.3897 13.579 18.5303 13.7197C18.671 13.8603 18.75 14.0511 18.75 14.25V17.25H20.25C20.4489 17.25 20.6397 17.329 20.7803 17.4697C20.921 17.6103 21 17.8011 21 18C21 18.1989 20.921 18.3897 20.7803 18.5303C20.6397 18.671 20.4489 18.75 20.25 18.75H18C17.8011 18.75 17.6103 18.671 17.4697 18.5303C17.329 18.3897 17.25 18.1989 17.25 18V14.25C17.25 14.0511 17.329 13.8603 17.4697 13.7197C17.6103 13.579 17.8011 13.5 18 13.5Z" fill="#2D76F9"/>
<path opacity="0.5" d="M10.5 18C10.5 19.4834 10.9399 20.9334 11.764 22.1668C12.5881 23.4001 13.7594 24.3614 15.1299 24.9291C16.5003 25.4968 18.0083 25.6453 19.4632 25.3559C20.918 25.0665 22.2544 24.3522 23.3033 23.3033C24.3522 22.2544 25.0665 20.918 25.3559 19.4632C25.6453 18.0083 25.4968 16.5003 24.9291 15.1299C24.3614 13.7594 23.4001 12.5881 22.1668 11.764C20.9334 10.9399 19.4834 10.5 18 10.5C17.0151 10.5 16.0398 10.694 15.1299 11.0709C14.2199 11.4478 13.3931 12.0003 12.6967 12.6967C11.2902 14.1032 10.5 16.0109 10.5 18ZM17.25 14.25C17.25 14.0511 17.329 13.8603 17.4697 13.7197C17.6103 13.579 17.8011 13.5 18 13.5C18.1989 13.5 18.3897 13.579 18.5303 13.7197C18.671 13.8603 18.75 14.0511 18.75 14.25V17.25H20.25C20.4489 17.25 20.6397 17.329 20.7803 17.4697C20.921 17.6103 21 17.8011 21 18C21 18.1989 20.921 18.3897 20.7803 18.5303C20.6397 18.671 20.4489 18.75 20.25 18.75H18C17.8011 18.75 17.6103 18.671 17.4697 18.5303C17.329 18.3897 17.25 18.1989 17.25 18V14.25Z" fill="#2D76F9"/>
<path d="M57.52 22.542C57.664 22.758 57.736 22.968 57.736 23.172C57.736 23.448 57.622 23.676 57.394 23.856C57.178 24.036 56.92 24.126 56.62 24.126C56.428 24.126 56.242 24.084 56.062 24C55.894 23.904 55.75 23.766 55.63 23.586L53.236 19.95C52.996 19.566 52.738 19.296 52.462 19.14C52.198 18.984 51.85 18.906 51.418 18.906H49.654V22.938C49.654 23.298 49.552 23.586 49.348 23.802C49.144 24.006 48.868 24.108 48.52 24.108C48.172 24.108 47.89 24.006 47.674 23.802C47.47 23.586 47.368 23.298 47.368 22.938V12.408C47.368 12.06 47.464 11.79 47.656 11.598C47.86 11.406 48.136 11.31 48.484 11.31H52.984C54.424 11.31 55.516 11.634 56.26 12.282C57.016 12.918 57.394 13.842 57.394 15.054C57.394 16.038 57.112 16.848 56.548 17.484C55.996 18.108 55.21 18.51 54.19 18.69C54.538 18.774 54.844 18.924 55.108 19.14C55.372 19.356 55.63 19.656 55.882 20.04L57.52 22.542ZM52.66 17.124C53.536 17.124 54.178 16.962 54.586 16.638C54.994 16.302 55.198 15.792 55.198 15.108C55.198 14.412 54.994 13.908 54.586 13.596C54.178 13.272 53.536 13.11 52.66 13.11H49.636V17.124H52.66ZM66.6516 21.588C66.8556 21.588 67.0176 21.666 67.1376 21.822C67.2696 21.978 67.3356 22.188 67.3356 22.452C67.3356 22.824 67.1136 23.136 66.6696 23.388C66.2616 23.616 65.7996 23.802 65.2836 23.946C64.7676 24.078 64.2756 24.144 63.8076 24.144C62.3916 24.144 61.2696 23.736 60.4416 22.92C59.6136 22.104 59.1996 20.988 59.1996 19.572C59.1996 18.672 59.3796 17.874 59.7396 17.178C60.0996 16.482 60.6036 15.942 61.2516 15.558C61.9116 15.174 62.6556 14.982 63.4836 14.982C64.2756 14.982 64.9656 15.156 65.5536 15.504C66.1416 15.852 66.5976 16.344 66.9216 16.98C67.2456 17.616 67.4076 18.366 67.4076 19.23C67.4076 19.746 67.1796 20.004 66.7236 20.004H61.4136C61.4856 20.832 61.7196 21.444 62.1156 21.84C62.5116 22.224 63.0876 22.416 63.8436 22.416C64.2276 22.416 64.5636 22.368 64.8516 22.272C65.1516 22.176 65.4876 22.044 65.8596 21.876C66.2196 21.684 66.4836 21.588 66.6516 21.588ZM63.5376 16.566C62.9256 16.566 62.4336 16.758 62.0616 17.142C61.7016 17.526 61.4856 18.078 61.4136 18.798H65.4816C65.4576 18.066 65.2776 17.514 64.9416 17.142C64.6056 16.758 64.1376 16.566 63.5376 16.566ZM79.7061 14.982C80.6661 14.982 81.3981 15.27 81.9021 15.846C82.4181 16.41 82.6761 17.328 82.6761 18.6V23.028C82.6761 23.376 82.5681 23.646 82.3521 23.838C82.1481 24.018 81.8781 24.108 81.5421 24.108C81.2181 24.108 80.9481 24.018 80.7321 23.838C80.5281 23.646 80.4261 23.376 80.4261 23.028V18.6C80.4261 17.94 80.3061 17.472 80.0661 17.196C79.8381 16.908 79.4841 16.764 79.0041 16.764C78.4161 16.764 77.9481 16.968 77.6001 17.376C77.2521 17.772 77.0781 18.318 77.0781 19.014V23.028C77.0781 23.376 76.9701 23.646 76.7541 23.838C76.5501 24.018 76.2861 24.108 75.9621 24.108C75.6381 24.108 75.3681 24.018 75.1521 23.838C74.9361 23.646 74.8281 23.376 74.8281 23.028V18.6C74.8281 17.94 74.7081 17.472 74.4681 17.196C74.2401 16.908 73.8861 16.764 73.4061 16.764C72.8181 16.764 72.3501 16.968 72.0021 17.376C71.6661 17.772 71.4981 18.318 71.4981 19.014V23.028C71.4981 23.376 71.3901 23.646 71.1741 23.838C70.9581 24.018 70.6881 24.108 70.3641 24.108C70.0401 24.108 69.7701 24.018 69.5541 23.838C69.3501 23.646 69.2481 23.376 69.2481 23.028V16.062C69.2481 15.726 69.3561 15.468 69.5721 15.288C69.7881 15.108 70.0581 15.018 70.3821 15.018C70.6941 15.018 70.9461 15.108 71.1381 15.288C71.3421 15.456 71.4441 15.702 71.4441 16.026V16.458C71.7201 15.978 72.0861 15.612 72.5421 15.36C73.0101 15.108 73.5441 14.982 74.1441 14.982C75.4641 14.982 76.3461 15.534 76.7901 16.638C77.0541 16.134 77.4441 15.732 77.9601 15.432C78.4761 15.132 79.0581 14.982 79.7061 14.982ZM86.079 24.108C85.755 24.108 85.485 24.018 85.269 23.838C85.065 23.646 84.963 23.376 84.963 23.028V16.08C84.963 15.732 85.065 15.468 85.269 15.288C85.485 15.108 85.755 15.018 86.079 15.018C86.403 15.018 86.673 15.108 86.889 15.288C87.105 15.468 87.213 15.732 87.213 16.08V23.028C87.213 23.376 87.105 23.646 86.889 23.838C86.673 24.018 86.403 24.108 86.079 24.108ZM86.079 13.416C85.671 13.416 85.347 13.308 85.107 13.092C84.867 12.864 84.747 12.57 84.747 12.21C84.747 11.85 84.867 11.562 85.107 11.346C85.347 11.13 85.671 11.022 86.079 11.022C86.475 11.022 86.793 11.13 87.033 11.346C87.285 11.562 87.411 11.85 87.411 12.21C87.411 12.57 87.291 12.864 87.051 13.092C86.811 13.308 86.487 13.416 86.079 13.416ZM94.6453 14.982C95.7013 14.982 96.4873 15.282 97.0033 15.882C97.5193 16.482 97.7773 17.388 97.7773 18.6V23.028C97.7773 23.364 97.6753 23.628 97.4713 23.82C97.2793 24.012 97.0093 24.108 96.6613 24.108C96.3133 24.108 96.0373 24.012 95.8333 23.82C95.6293 23.628 95.5273 23.364 95.5273 23.028V18.726C95.5273 18.042 95.3953 17.544 95.1313 17.232C94.8793 16.92 94.4773 16.764 93.9253 16.764C93.2773 16.764 92.7553 16.968 92.3593 17.376C91.9753 17.784 91.7833 18.33 91.7833 19.014V23.028C91.7833 23.364 91.6813 23.628 91.4773 23.82C91.2733 24.012 90.9973 24.108 90.6493 24.108C90.3013 24.108 90.0253 24.012 89.8213 23.82C89.6293 23.628 89.5333 23.364 89.5333 23.028V16.062C89.5333 15.75 89.6353 15.498 89.8393 15.306C90.0433 15.114 90.3193 15.018 90.6673 15.018C90.9793 15.018 91.2313 15.114 91.4233 15.306C91.6273 15.486 91.7293 15.726 91.7293 16.026V16.512C92.0293 16.02 92.4313 15.642 92.9353 15.378C93.4393 15.114 94.0093 14.982 94.6453 14.982ZM107.407 11.22C107.743 11.22 108.019 11.316 108.235 11.508C108.451 11.7 108.559 11.952 108.559 12.264V23.028C108.559 23.352 108.457 23.61 108.253 23.802C108.049 23.994 107.779 24.09 107.443 24.09C107.107 24.09 106.837 23.994 106.633 23.802C106.429 23.61 106.327 23.352 106.327 23.028V22.578C106.063 23.07 105.679 23.454 105.175 23.73C104.683 24.006 104.119 24.144 103.483 24.144C102.727 24.144 102.049 23.952 101.449 23.568C100.861 23.184 100.399 22.644 100.063 21.948C99.7386 21.24 99.5766 20.43 99.5766 19.518C99.5766 18.606 99.7386 17.808 100.063 17.124C100.399 16.44 100.861 15.912 101.449 15.54C102.037 15.168 102.715 14.982 103.483 14.982C104.119 14.982 104.683 15.114 105.175 15.378C105.667 15.642 106.045 16.014 106.309 16.494V12.228C106.309 11.928 106.405 11.688 106.597 11.508C106.801 11.316 107.071 11.22 107.407 11.22ZM104.077 22.398C104.797 22.398 105.349 22.152 105.733 21.66C106.129 21.168 106.327 20.466 106.327 19.554C106.327 18.642 106.129 17.946 105.733 17.466C105.349 16.974 104.803 16.728 104.095 16.728C103.375 16.728 102.817 16.968 102.421 17.448C102.025 17.928 101.827 18.618 101.827 19.518C101.827 20.43 102.025 21.138 102.421 21.642C102.817 22.146 103.369 22.398 104.077 22.398Z" fill="#212121"/>
<path d="M121.331 14.982C122.291 14.982 123.023 15.27 123.527 15.846C124.043 16.41 124.301 17.328 124.301 18.6V23.028C124.301 23.376 124.193 23.646 123.977 23.838C123.773 24.018 123.503 24.108 123.167 24.108C122.843 24.108 122.573 24.018 122.357 23.838C122.153 23.646 122.051 23.376 122.051 23.028V18.6C122.051 17.94 121.931 17.472 121.691 17.196C121.463 16.908 121.109 16.764 120.629 16.764C120.041 16.764 119.573 16.968 119.225 17.376C118.877 17.772 118.703 18.318 118.703 19.014V23.028C118.703 23.376 118.595 23.646 118.379 23.838C118.175 24.018 117.911 24.108 117.587 24.108C117.263 24.108 116.993 24.018 116.777 23.838C116.561 23.646 116.453 23.376 116.453 23.028V18.6C116.453 17.94 116.333 17.472 116.093 17.196C115.865 16.908 115.511 16.764 115.031 16.764C114.443 16.764 113.975 16.968 113.627 17.376C113.291 17.772 113.123 18.318 113.123 19.014V23.028C113.123 23.376 113.015 23.646 112.799 23.838C112.583 24.018 112.313 24.108 111.989 24.108C111.665 24.108 111.395 24.018 111.179 23.838C110.975 23.646 110.873 23.376 110.873 23.028V16.062C110.873 15.726 110.981 15.468 111.197 15.288C111.413 15.108 111.683 15.018 112.007 15.018C112.319 15.018 112.571 15.108 112.763 15.288C112.967 15.456 113.069 15.702 113.069 16.026V16.458C113.345 15.978 113.711 15.612 114.167 15.36C114.635 15.108 115.169 14.982 115.769 14.982C117.089 14.982 117.971 15.534 118.415 16.638C118.679 16.134 119.069 15.732 119.585 15.432C120.101 15.132 120.683 14.982 121.331 14.982ZM133.554 21.588C133.758 21.588 133.92 21.666 134.04 21.822C134.172 21.978 134.238 22.188 134.238 22.452C134.238 22.824 134.016 23.136 133.572 23.388C133.164 23.616 132.702 23.802 132.186 23.946C131.67 24.078 131.178 24.144 130.71 24.144C129.294 24.144 128.172 23.736 127.344 22.92C126.516 22.104 126.102 20.988 126.102 19.572C126.102 18.672 126.282 17.874 126.642 17.178C127.002 16.482 127.506 15.942 128.154 15.558C128.814 15.174 129.558 14.982 130.386 14.982C131.178 14.982 131.868 15.156 132.456 15.504C133.044 15.852 133.5 16.344 133.824 16.98C134.148 17.616 134.31 18.366 134.31 19.23C134.31 19.746 134.082 20.004 133.626 20.004H128.316C128.388 20.832 128.622 21.444 129.018 21.84C129.414 22.224 129.99 22.416 130.746 22.416C131.13 22.416 131.466 22.368 131.754 22.272C132.054 22.176 132.39 22.044 132.762 21.876C133.122 21.684 133.386 21.588 133.554 21.588ZM130.44 16.566C129.828 16.566 129.336 16.758 128.964 17.142C128.604 17.526 128.388 18.078 128.316 18.798H132.384C132.36 18.066 132.18 17.514 131.844 17.142C131.508 16.758 131.04 16.566 130.44 16.566Z" fill="#2D76F9"/>
</svg>
